<?xml version="1.0" standalone="no"?><!DOCTYPE svg PUBLIC "-//W3C//DTD SVG 1.1//EN" "http://www.w3.org/Graphics/SVG/1.1/DTD/svg11.dtd"><svg class="icon" width="200px" height="200.00px" viewBox="0 0 1024 1024" version="1.1" xmlns="http://www.w3.org/2000/svg"><path fill="#333333" d="M384 768a112 112 0 1 0 112 112A112 112 0 0 0 384 768z m416 0a112 112 0 1 0 112 112A112 112 0 0 0 800 768z m162.88-519.36A64 64 0 0 0 915.2 224L299.84 192 239.68 132.48A96 96 0 1 0 149.44 224l64 64 87.68 366.4A64 64 0 0 0 363.52 704h8.32l484.48-64a64 64 0 0 0 54.08-49.6l64-288a64 64 0 0 0-11.52-53.76z"  /></svg>