<?xml version="1.0" standalone="no"?><!DOCTYPE svg PUBLIC "-//W3C//DTD SVG 1.1//EN" "http://www.w3.org/Graphics/SVG/1.1/DTD/svg11.dtd"><svg class="icon" width="200px" height="200.00px" viewBox="0 0 1024 1024" version="1.1" xmlns="http://www.w3.org/2000/svg"><path fill="#333333" d="M85.333333 652.928m142.890667 0l567.552 0q142.890667 0 142.890667 142.890667l0 0q0 142.890667-142.890667 142.890666l-567.552 0q-142.890667 0-142.890667-142.890666l0 0q0-142.890667 142.890667-142.890667ZM679.253333 188.501333c-46.293333-55.594667-104.106667-103.253333-167.296-103.253333h-5.802666v0.469333c-60.501333 2.688-116.565333 48.938667-161.066667 102.784a212.437333 212.437333 0 0 0-48.938667 125.013334 216.405333 216.405333 0 1 0 432.469334 11.562666 213.248 213.248 0 0 0-49.365334-136.576z" /></svg>